<svg width="50" height="50" viewBox="0 0 50 50" fill="none" xmlns="http://www.w3.org/2000/svg">
<path d="M33.7838 25L49.637 9.14681C50.121 8.66279 50.121 7.87487 49.637 7.39085L42.6092 0.363015C42.1251 -0.121005 41.3372 -0.121005 40.8532 0.363015L25 16.2162L9.14681 0.363015C8.66279 -0.121005 7.87488 -0.121005 7.39085 0.363015L0.363015 7.39085C-0.121005 7.87487 -0.121005 8.66278 0.363015 9.14681L16.2162 25L0.363015 40.8532C-0.121005 41.3372 -0.121005 42.1251 0.363015 42.6091L7.39085 49.637C7.87487 50.121 8.66278 50.121 9.14681 49.637L25 33.7838L40.8532 49.637C41.3372 50.121 42.1251 50.121 42.6092 49.637L49.637 42.6091C50.121 42.1251 50.121 41.3372 49.637 40.8532L33.7838 25Z" fill="#FF0000"/>
</svg>
