<svg width="17" height="17" viewBox="0 0 17 17" fill="none" xmlns="http://www.w3.org/2000/svg">
<path d="M7.79177 0C6.6265 0 5.664 0.958082 5.664 2.12335V9.20888C5.664 10.3741 6.62739 11.3322 7.79177 11.3322H14.8719C16.0371 11.3322 16.9996 10.3741 16.9996 9.20888V2.12335C16.9996 0.958082 16.0362 0 14.8719 0H7.79177ZM7.79177 1.41674H14.8719C15.2765 1.41674 15.5829 1.7178 15.5829 2.12246V9.20799C15.5829 9.61266 15.2765 9.91902 14.8719 9.91902H7.79177C7.3871 9.91902 7.08075 9.61264 7.08075 9.20799V2.12246C7.08075 1.7178 7.38712 1.41674 7.79177 1.41674Z" fill="black"/>
<path d="M2.12335 5.66846C0.958081 5.66846 0 6.62654 0 7.79181V14.8773C0 16.0426 0.958081 17.0007 2.12335 17.0007H9.20888C10.3741 17.0007 11.3313 16.0426 11.3313 14.8773V10.6262L11.3322 10.6253C11.3305 10.2357 11.0152 9.92048 10.6265 9.9196C10.4379 9.91871 10.2573 9.99221 10.1245 10.125C9.99076 10.257 9.91549 10.4376 9.9146 10.6253V14.8764C9.9146 15.2811 9.61355 15.5822 9.20888 15.5822H2.12335C1.71869 15.5822 1.41763 15.2811 1.41763 14.8764V7.79091C1.41763 7.38625 1.71869 7.08519 2.12335 7.08519H6.37449C6.56309 7.08431 6.74284 7.00904 6.87477 6.87623C7.00759 6.74252 7.08197 6.56189 7.08109 6.37418C7.07931 5.98456 6.7641 5.66934 6.37448 5.66846L2.12335 5.66846Z" fill="black"/>
</svg>
