<svg width="46" height="46" viewBox="0 0 46 46" fill="none" xmlns="http://www.w3.org/2000/svg">
<path d="M23 0C35.6863 0 46 10.3137 46 23C46 35.6863 35.6863 46 23 46C10.3137 46 0 35.6863 0 23C0 10.3137 10.3137 0 23 0ZM23 41.6905C33.3137 41.6905 41.6905 33.3137 41.6905 23C41.6905 12.6863 33.3137 4.30947 23 4.30947C12.6863 4.30947 4.30947 12.6863 4.30947 23C4.30947 33.3137 12.6863 41.6905 23 41.6905Z" fill="url(#paint0_linear_74_479)"/>
<path d="M23.9684 12.5894C24.7916 11.7663 26.1958 11.7663 27.0189 12.5894C27.8421 13.4126 27.8421 14.8168 27.0189 15.64L19.6589 23L27.0189 30.36C27.8421 31.1831 27.8421 32.5873 27.0189 33.4105C26.5831 33.8463 26.0505 34.04 25.4694 34.04C24.9368 34.04 24.3558 33.8463 23.92 33.4105L15.0105 24.501C14.6231 24.1137 14.381 23.5326 14.381 22.9516C14.381 22.3705 14.6231 21.8379 15.0105 21.4021L23.9684 12.5894Z" fill="url(#paint1_linear_74_479)"/>
<defs>
<linearGradient id="paint0_linear_74_479" x1="37.5" y1="37.5" x2="15.5" y2="17.5" gradientUnits="userSpaceOnUse">
<stop stop-color="#7A2180"/>
<stop offset="1" stop-color="#E40276"/>
</linearGradient>
<linearGradient id="paint1_linear_74_479" x1="25.1869" y1="29.9622" x2="16.2677" y2="25.0918" gradientUnits="userSpaceOnUse">
<stop stop-color="#7A2180"/>
<stop offset="1" stop-color="#E40276"/>
</linearGradient>
</defs>
</svg>
