<svg width="35" height="35" viewBox="0 0 35 35" fill="none" xmlns="http://www.w3.org/2000/svg">
<path d="M18.8671 2.18765L19.3265 5.20638C19.3873 5.60893 19.5593 5.98652 19.823 6.29665C20.0868 6.60678 20.4319 6.83715 20.8194 6.96184C21.4082 7.14563 21.9807 7.37794 22.5311 7.65637C22.897 7.84505 23.3087 7.92667 23.7188 7.89185C24.129 7.85702 24.5211 7.70716 24.8499 7.45949L27.2288 5.66575C27.9178 6.30559 28.6616 7.01106 29.2577 7.68918L28.7983 8.27433C28.3553 8.82121 27.8959 9.42276 27.453 10.0353C27.2135 10.3667 27.0717 10.7586 27.0437 11.1665C27.0156 11.5744 27.1025 11.982 27.2944 12.3431C27.6159 12.9412 27.8779 13.5695 28.0764 14.2188C28.1963 14.6132 28.4253 14.9657 28.7368 15.2357C29.0484 15.5056 29.4299 15.6821 29.8373 15.7446L32.8123 16.1985V18.9329L29.8209 19.3868C29.4265 19.4468 29.0559 19.6135 28.7494 19.8689C28.4428 20.1244 28.212 20.4588 28.0819 20.836C27.886 21.4269 27.639 21.9997 27.3436 22.5477C27.1473 22.9046 27.0546 23.3092 27.0758 23.716C27.0971 24.1228 27.2315 24.5155 27.4639 24.85C28.0764 25.7305 28.7108 26.5453 29.3178 27.2945C28.7217 27.9508 27.8905 28.8039 27.2725 29.3617L24.9374 27.5352C24.6074 27.2775 24.2105 27.12 23.7937 27.0812C23.3768 27.0424 22.9576 27.124 22.5858 27.3164C22.0268 27.6056 21.4452 27.8488 20.8468 28.0438C20.4466 28.1724 20.0919 28.4135 19.8252 28.7384C19.5585 29.0633 19.391 29.4582 19.3429 29.8758L19.2827 30.3898C19.1897 31.1992 19.0968 32.0305 18.9546 32.818H16.1327L15.6734 29.7992C15.6125 29.3967 15.4405 29.0191 15.1768 28.709C14.913 28.3988 14.568 28.1684 14.1804 28.0438C13.5914 27.8582 13.0189 27.6241 12.4687 27.3438C12.101 27.1536 11.6869 27.0717 11.2745 27.1075C10.8622 27.1433 10.4684 27.2954 10.139 27.5461L7.78199 29.3344C7.07652 28.6891 6.32731 27.9891 5.73122 27.3164L6.19606 26.7258C6.63903 26.1789 7.0984 25.5774 7.54137 24.9649C7.78084 24.6335 7.92264 24.2416 7.95067 23.8336C7.97871 23.4257 7.89185 23.0181 7.69996 22.6571C7.37977 22.0597 7.1214 21.4312 6.92887 20.7813C6.81125 20.3806 6.58139 20.0219 6.26644 19.7477C5.95149 19.4734 5.56462 19.295 5.15154 19.2336L2.18749 18.818V16.0837L5.17888 15.6352C5.58437 15.574 5.96448 15.4 6.27584 15.1331C6.58721 14.8662 6.81728 14.5172 6.93981 14.1259C7.12358 13.5285 7.36345 12.9499 7.65621 12.3977C7.84638 12.0396 7.93327 11.6357 7.9072 11.2311C7.88113 10.8265 7.74311 10.4371 7.50855 10.1064C6.90153 9.24777 6.27809 8.46574 5.67106 7.68918C6.25622 7.04387 7.08199 6.19622 7.69996 5.64388L10.057 7.47043C10.3869 7.72612 10.7831 7.88207 11.1989 7.91986C11.6146 7.95765 12.0324 7.87571 12.4031 7.68371C12.9621 7.39457 13.5437 7.15133 14.1421 6.95637C14.5423 6.82778 14.897 6.5866 15.1637 6.2617C15.4304 5.9368 15.5979 5.54193 15.646 5.12435L15.7062 4.61029C15.7991 3.80092 15.8921 2.96967 16.0343 2.18218H18.8671M17.4999 25.5227C19.0866 25.5227 20.6377 25.0522 21.957 24.1706C23.2763 23.2891 24.3046 22.0361 24.9118 20.5702C25.519 19.1042 25.6779 17.4912 25.3684 15.9349C25.0588 14.3787 24.2947 12.9492 23.1728 11.8272C22.0508 10.7052 20.6213 9.94116 19.065 9.6316C17.5088 9.32205 15.8957 9.48092 14.4298 10.0881C12.9638 10.6953 11.7109 11.7236 10.8293 13.0429C9.94781 14.3623 9.47729 15.9133 9.47729 17.5001C9.47874 19.6274 10.3244 21.6671 11.8287 23.1713C13.3329 24.6755 15.3726 25.5212 17.4999 25.5227ZM20.0319 0.000158864H14.9734C14.7845 -0.00143899 14.6006 0.0609201 14.4517 0.177092C14.3027 0.293264 14.1975 0.456413 14.153 0.639999C13.8309 2.03502 13.6098 3.45144 13.4913 4.87826C12.778 5.10926 12.0848 5.39824 11.4187 5.74232L8.27417 3.28139C8.09676 3.14583 7.87949 3.07276 7.65621 3.07358C6.87965 3.07358 3.8281 6.39856 3.28123 7.15325C3.15401 7.30748 3.0827 7.50022 3.07889 7.70012C3.08902 7.88555 3.16016 8.06243 3.28123 8.20324C4.12342 9.23136 4.92185 10.254 5.72028 11.3478C5.3595 12.0164 5.06286 12.7177 4.83435 13.4423L0.617965 14.104C0.442083 14.1589 0.287849 14.2675 0.176988 14.4147C0.0661268 14.5619 0.00422444 14.7401 0 14.9243L0 19.9829C0.00348394 20.1712 0.0708614 20.3529 0.191088 20.4979C0.311315 20.643 0.477257 20.7429 0.661715 20.7813L4.83435 21.3993C5.06897 22.1818 5.38228 22.9385 5.7695 23.6578C4.99294 24.7516 4.12888 25.7305 3.37967 26.7805C3.25835 26.9366 3.19461 27.1297 3.1992 27.3274C3.19045 27.5221 3.24619 27.7144 3.35779 27.8742C4.48845 29.266 5.74822 30.5478 7.12027 31.7023C7.26378 31.8529 7.45943 31.9429 7.66715 31.9539C7.86721 31.951 8.06022 31.8795 8.21402 31.7516L11.4843 29.2797C12.1434 29.6167 12.8294 29.8984 13.5351 30.1219L14.1749 34.3164C14.2059 34.5062 14.3031 34.679 14.4492 34.8041C14.5953 34.9292 14.781 34.9986 14.9734 35H20.0319C20.2208 35.0016 20.4047 34.9392 20.5536 34.823C20.7025 34.7069 20.8078 34.5437 20.8522 34.3601C21.1744 32.9651 21.3955 31.5487 21.5139 30.1219C22.2273 29.8909 22.9204 29.6019 23.5866 29.2578L26.7311 31.7187C26.9052 31.8409 27.1095 31.9128 27.3217 31.9266C28.0983 31.9266 31.1498 28.5797 31.6967 27.8469C31.7657 27.774 31.8197 27.6881 31.8553 27.5942C31.891 27.5004 31.9077 27.4004 31.9045 27.3C31.8922 27.0969 31.8112 26.9041 31.6748 26.7531C30.8326 25.7305 30.0342 24.7242 29.2358 23.6086C29.5928 22.9451 29.8911 22.2516 30.1272 21.536L34.3436 20.8961C34.527 20.8489 34.6902 20.7433 34.8085 20.5954C34.9268 20.4475 34.994 20.2652 34.9998 20.0758V15.0173C34.9963 14.8289 34.929 14.6473 34.8087 14.5022C34.6885 14.3571 34.5226 14.2572 34.3381 14.2188L30.1655 13.579C29.9262 12.8069 29.613 12.0597 29.2303 11.3478C30.0069 10.254 30.8709 9.27511 31.6201 8.22512C31.7415 8.06904 31.8052 7.87587 31.8006 7.67824C31.8081 7.49717 31.752 7.31918 31.642 7.17512C30.5166 5.76226 29.2605 4.45859 27.8905 3.28139C27.7395 3.14502 27.5467 3.06403 27.3436 3.0517C27.1381 3.05289 26.9415 3.13548 26.7967 3.28139L23.5155 5.72044C22.8564 5.38347 22.1704 5.10178 21.4647 4.87826L20.8522 0.683749C20.8207 0.490152 20.7203 0.314436 20.5697 0.188863C20.419 0.0632892 20.228 -0.00371264 20.0319 0.000158864ZM17.4999 23.3352C16.3458 23.3352 15.2177 22.993 14.2581 22.3518C13.2985 21.7106 12.5506 20.7993 12.109 19.7331C11.6673 18.6668 11.5518 17.4936 11.7769 16.3617C12.0021 15.2298 12.5578 14.1901 13.3739 13.374C14.1899 12.558 15.2296 12.0022 16.3615 11.7771C17.4934 11.5519 18.6667 11.6675 19.7329 12.1091C20.7991 12.5508 21.7105 13.2987 22.3516 14.2582C22.9928 15.2178 23.335 16.346 23.335 17.5001C23.3321 19.0467 22.7164 20.5293 21.6228 21.6229C20.5291 22.7166 19.0466 23.3323 17.4999 23.3352Z" fill="#7A2180"/>
</svg>
