<svg width="33" height="33" viewBox="0 0 33 33" fill="none" xmlns="http://www.w3.org/2000/svg">
<path d="M16.5 0C7.39895 0 0 7.39895 0 16.5C0 25.6011 7.39895 33 16.5 33C25.6011 33 33 25.6011 33 16.5C33 7.39895 25.6011 0 16.5 0ZM16.5 29.9084C9.10105 29.9084 3.09158 23.8989 3.09158 16.5C3.09158 9.10105 9.10105 3.09158 16.5 3.09158C23.8989 3.09158 29.9084 9.10105 29.9084 16.5C29.9084 23.8989 23.8989 29.9084 16.5 29.9084Z" fill="url(#paint0_linear_26_260)"/>
<path d="M15.8053 9.03158C15.2147 8.44105 14.2074 8.44105 13.6168 9.03158C13.0263 9.62211 13.0263 10.6295 13.6168 11.22L18.8968 16.5L13.6168 21.78C13.0263 22.3705 13.0263 23.3779 13.6168 23.9684C13.9295 24.2811 14.3116 24.42 14.7284 24.42C15.1105 24.42 15.5274 24.2811 15.84 23.9684L22.2316 17.5768C22.5095 17.2989 22.6832 16.8821 22.6832 16.4653C22.6832 16.0484 22.5095 15.6663 22.2316 15.3537L15.8053 9.03158Z" fill="url(#paint1_linear_26_260)"/>
<defs>
<linearGradient id="paint0_linear_26_260" x1="16.5" y1="0" x2="16.5" y2="33" gradientUnits="userSpaceOnUse">
<stop stop-color="#7A2180"/>
<stop offset="1" stop-color="#E40276"/>
</linearGradient>
<linearGradient id="paint1_linear_26_260" x1="17.9286" y1="8.58868" x2="17.9286" y2="24.42" gradientUnits="userSpaceOnUse">
<stop stop-color="#7A2180"/>
<stop offset="1" stop-color="#E40276"/>
</linearGradient>
</defs>
</svg>
